<?xml version="1.0" encoding="UTF-8" standalone="no"?>
<svg width="46px" height="41px" viewBox="0 0 46 41" version="1.1" xmlns="http://www.w3.org/2000/svg" xmlns:xlink="http://www.w3.org/1999/xlink" xmlns:sketch="http://www.bohemiancoding.com/sketch/ns">
    <!-- Generator: Sketch 3.4 (15575) - http://www.bohemiancoding.com/sketch -->
    <title>Artboard 9</title>
    <desc>Created with Sketch.</desc>
    <defs></defs>
    <g id="Welcome" stroke="none" stroke-width="1" fill="none" fill-rule="evenodd" sketch:type="MSPage">
        <g id="Artboard-9" sketch:type="MSArtboardGroup" fill="#5D8FAE">
            <path d="M10.3779994,32.3761858 C10.3779994,32.8404739 10.2083583,33.2422556 9.86907087,33.581543 C9.52978346,33.9208304 9.12800176,34.0904715 8.66371373,34.0904715 C8.19942569,34.0904715 7.797644,33.9208304 7.45835658,33.581543 C7.11906917,33.2422556 6.94942801,32.8404739 6.94942801,32.3761858 C6.94942801,31.9118978 7.11906917,31.5101161 7.45835658,31.1708287 C7.797644,30.8315413 8.19942569,30.6619001 8.66371373,30.6619001 C9.12800176,30.6619001 9.52978346,30.8315413 9.86907087,31.1708287 C10.2083583,31.5101161 10.3779994,31.9118978 10.3779994,32.3761858 L10.3779994,32.3761858 Z M35.8512137,39.0994001 C34.5476358,40.3315491 32.8155102,40.9476144 30.6547852,40.9476144 L7.24407087,40.9476144 C5.08334578,40.9476144 3.35122025,40.3315491 2.0476423,39.0994001 C0.744064353,37.8672511 0.0922851562,36.1708395 0.0922851562,34.0101144 C0.0922851562,32.7958226 0.141391808,31.6261915 0.239606585,30.5011858 C0.337821362,29.3761802 0.552104933,28.1440497 0.882463728,26.8047573 C1.21282252,25.4654648 1.63692542,24.282441 2.15478516,23.2556501 C2.67264489,22.2288593 3.39585194,21.3092256 4.32442801,20.4967215 C5.25300408,19.6842175 6.32442194,19.1440443 7.53871373,18.8761858 C7.14585462,19.8047619 6.94942801,20.8761798 6.94942801,22.0904715 L6.94942801,27.5279715 C5.91370855,27.8851162 5.08335971,28.5101099 4.45835658,29.4029715 C3.83335346,30.2958331 3.52085658,31.2868947 3.52085658,32.3761858 C3.52085658,33.8047644 4.02085158,35.019038 5.02085658,36.019043 C6.02086158,37.019048 7.23513516,37.519043 8.66371373,37.519043 C10.0922923,37.519043 11.3065659,37.019048 12.3065709,36.019043 C13.3065759,35.019038 13.8065709,33.8047644 13.8065709,32.3761858 C13.8065709,31.2868947 13.4896098,30.2958331 12.855678,29.4029715 C12.2217463,28.5101099 11.3958617,27.8851162 10.3779994,27.5279715 L10.3779994,22.0904715 C10.3779994,20.9833231 10.6012115,20.1529743 11.0476423,19.5994001 C13.4047969,21.4565523 16.0386992,22.3851144 18.949428,22.3851144 C21.8601569,22.3851144 24.6791992,21.0092773 24.6791992,21.0092773 L24.7199707,24.4936523 C24.7199707,24.4936523 24.0119347,24.4743934 22.6726423,25.8136858 C21.3333499,27.1529782 20.6637137,28.7690335 20.6637137,30.6619001 L20.6637137,33.0458287 C20.0922823,33.5636884 19.8065709,34.1976106 19.8065709,34.9476144 C19.8065709,35.6619037 20.0565684,36.2690405 20.5565709,36.769043 C21.0565734,37.2690455 21.6637102,37.519043 22.3779994,37.519043 C23.0922887,37.519043 23.6994255,37.2690455 24.199428,36.769043 C24.6994305,36.2690405 24.949428,35.6619037 24.949428,34.9476144 C24.949428,34.1976106 24.6637166,33.5636884 24.0922852,33.0458287 L24.0922852,30.6619001 C24.0922852,29.733324 24.4315675,28.9297606 25.1101423,28.2511858 C25.7887171,27.572611 26.5922805,27.2333287 27.5208566,27.2333287 C28.4494327,27.2333287 29.252996,27.572611 29.9315709,28.2511858 C30.6101457,28.9297606 30.949428,29.733324 30.949428,30.6619001 L30.949428,33.0458287 C30.3779966,33.5636884 30.0922852,34.1976106 30.0922852,34.9476144 C30.0922852,35.6619037 30.3422827,36.2690405 30.8422852,36.769043 C31.3422877,37.2690455 31.9494244,37.519043 32.6637137,37.519043 C33.378003,37.519043 33.9851398,37.2690455 34.4851423,36.769043 C34.9851448,36.2690405 35.2351423,35.6619037 35.2351423,34.9476144 C35.2351423,34.1976106 34.9151814,33.6003793 34.34375,33.0825195 C34.34375,33.0825195 37.8012241,32.9559889 37.8065709,33.0101144 C38.0996094,35.9765625 37.1547917,37.8672511 35.8512137,39.0994001 Z M29.2351423,10.0904715 C29.2351423,12.9297715 28.2306881,15.3538544 26.2217494,17.362793 C24.2128108,19.3717316 21.7887279,20.3761858 18.949428,20.3761858 C16.1101281,20.3761858 13.6860452,19.3717316 11.6771066,17.362793 C9.66816797,15.3538544 8.66371373,12.9297715 8.66371373,10.0904715 C8.66371373,7.25117163 9.66816797,4.82708873 11.6771066,2.81815011 C13.6860452,0.809211496 16.1101281,-0.195242746 18.949428,-0.195242746 C21.7887279,-0.195242746 24.2128108,0.809211496 26.2217494,2.81815011 C28.2306881,4.82708873 29.2351423,7.25117163 29.2351423,10.0904715 Z M45.949428,22.3761858 C45.949428,22.7333305 45.8244293,23.0368989 45.574428,23.2869001 C45.3244268,23.5369014 45.0208584,23.6619001 44.6637137,23.6619001 L39.0922852,23.6619001 L39.0922852,29.2333287 C39.0922852,29.5904733 38.9672864,29.8940417 38.7172852,30.144043 C38.4672839,30.3940442 38.1637155,30.519043 37.8065709,30.519043 L35.2351423,30.519043 C34.8779977,30.519043 34.5744293,30.3940442 34.324428,30.144043 C34.0744268,29.8940417 33.949428,29.5904733 33.949428,29.2333287 L33.949428,23.6619001 L28.3779994,23.6619001 C28.0208548,23.6619001 27.7172864,23.5369014 27.4672852,23.2869001 C27.2172839,23.0368989 27.0922852,22.7333305 27.0922852,22.3761858 L27.0922852,19.8047573 C27.0922852,19.4476126 27.2172839,19.1440442 27.4672852,18.894043 C27.7172864,18.6440417 28.0208548,18.519043 28.3779994,18.519043 L33.949428,18.519043 L33.949428,12.9476144 C33.949428,12.5904698 34.0744268,12.2869014 34.324428,12.0369001 C34.5744293,11.7868989 34.8779977,11.6619001 35.2351423,11.6619001 L37.8065709,11.6619001 C38.1637155,11.6619001 38.4672839,11.7868989 38.7172852,12.0369001 C38.9672864,12.2869014 39.0922852,12.5904698 39.0922852,12.9476144 L39.0922852,18.519043 L44.6637137,18.519043 C45.0208584,18.519043 45.3244268,18.6440417 45.574428,18.894043 C45.8244293,19.1440442 45.949428,19.4476126 45.949428,19.8047573 L45.949428,22.3761858 Z" id="" sketch:type="MSShapeGroup"></path>
        </g>
    </g>
</svg>