<?xml version="1.0" encoding="UTF-8" standalone="no"?>
<svg width="38px" height="90px" viewBox="0 0 38 90" version="1.1" xmlns="http://www.w3.org/2000/svg" xmlns:xlink="http://www.w3.org/1999/xlink">
    <!-- Generator: Sketch 40.1 (33804) - http://www.bohemiancoding.com/sketch -->
    <title>adult</title>
    <desc>Created with Sketch.</desc>
    <defs></defs>
    <g id="Page-1" stroke="none" stroke-width="1" fill="none" fill-rule="evenodd">
        <g id="Artboard" fill="#000000">
            <g id="adult">
                <path d="M37.71,48.315 C38.281,50.942 36.766,53.09 34.341,53.09 L29.947,53.09 L29.547,57.965 L27.392,85.127 C27.178,87.807 25.165,90 22.911,90 L14.725,90 C12.47,90 10.454,87.807 10.242,85.128 L8.087,57.966 L7.675,53.091 L3.479,53.091 C1.158,53.091 -0.276,50.943 0.295,48.316 L4.645,28.265 C5.215,25.639 7.882,23.489 10.571,23.489 L14.116,23.489 L23.89,23.489 L27.434,23.489 C30.125,23.489 32.789,25.639 33.359,28.265 L37.71,48.315 M28.751,9.752 C28.751,4.366 24.386,0 19,0 C13.614,0 9.249,4.366 9.249,9.752 C9.249,15.136 13.614,19.502 19,19.502 C24.386,19.502 28.751,15.136 28.751,9.752" id="Shape"></path>
            </g>
        </g>
    </g>
</svg>