<?xml version="1.0" encoding="iso-8859-1"?>
<!-- Generator: Adobe Illustrator 16.0.0, SVG Export Plug-In . SVG Version: 6.00 Build 0)  -->
<!DOCTYPE svg PUBLIC "-//W3C//DTD SVG 1.1//EN" "http://www.w3.org/Graphics/SVG/1.1/DTD/svg11.dtd">
<svg version="1.1" id="Capa_1" xmlns="http://www.w3.org/2000/svg" xmlns:xlink="http://www.w3.org/1999/xlink" x="0px" y="0px"
	 width="460.459px" height="460.459px" viewBox="0 0 460.459 460.459" style="enable-background:new 0 0 460.459 460.459;"
	 xml:space="preserve">
<g>
	<g id="icons_6_">
		<g>
			<path d="M94.879,101.756c5.683,2.281,11.792,3.445,17.916,3.445c15.927,0,31.101-8.114,39.975-21.336
				c9.001-13.41,10.625-30.944,4.241-45.783c-6.22-14.455-19.509-25.217-34.964-28.228c-15.805-3.08-32.439,2.095-43.687,13.615
				C67.105,34.997,62.332,51.78,65.809,67.513C69.205,82.875,80.282,95.896,94.879,101.756z"/>
			<path d="M434.191,421.493c-0.47-0.547-46.041-54.477-48.574-138.216c-0.057-1.85-0.258-8.368-2.194-17.768
				c-10.935-53.077-26.579-132.793-29.014-145.845c-4.671-25.038-25.313-26.616-41.24-22.979
				c-15.927,3.637-27.172,12.133-33.622,33.432c-16,52.833-74.107,71.608-78.596,75.347c-0.179-2.542-1.404-56.18-48.755-83.671
				c-17.056-9.902-54.609-16.016-82.104-0.156c-53.71,30.982-49.275,106.933-48.913,112.607c0.261,4.088,0.799,8.16,1.247,12.23
				c0.842,7.453,7.576,13.153,15.068,12.704c7.489-0.45,13.483-6.887,13.417-14.384l-0.005-0.685
				c-0.029-3.401-0.166-6.818-0.04-10.218c0.183-5.013,0.487-9.986,0.904-14.985c0.681-5.109,1.224-10.347,2.602-15.328
				c1.359-5.975,6.365-18.799,10.621-25.959c0.749-1.26,2.117-1.575,1.798,0.653c-0.319,2.228-2.754,265.903-2.754,265.903
				c0.414,8.176,5.321,15.166,21.35,15.166c16.029,0,20.319-11.641,20.319-16.22s-0.089-111.263-0.089-116.311
				c0-5.046,9.994-6.995,9.994,0.154c0,7.15,0.886,116.186,0.886,116.186c0.407,8.175,6.86,16.299,20.998,16.299
				c14.136,0,18.849-8.179,18.849-17.438c0-15.418,0.221-259.423-0.442-261.906c-0.686-2.569,1.008-2.817,1.757-1.488l1.362,2.203
				l1.23,2.338c3.406,6.367,5.748,13.395,7.347,20.421c1.379,4.982,1.917,10.218,2.607,15.326c0.413,4.999,0.719,9.971,0.903,14.984
				c0.126,3.399-0.027,11.661-0.003,12.005c-7.39,5.392-7.109,17.774-4.856,20.979s6.765,4.103,10.064,1.984
				c1.483-0.953,2.6-2.432,3.104-4.122c0.273-0.917,0.271-1.816,0.326-2.762c0.073-1.236,0.358-2.46,0.844-3.602
				c5.789,2.045,12.346,0.098,16.086-4.77c2.893,1.954,4.798,5.266,4.798,9.013V449.16c0,4.041,3.373,7.413,7.415,7.413
				s7.413-3.372,7.413-7.413V262.617c-0.001-10.708-6.562-19.86-15.917-23.76c-1.028-0.43-0.896-2.611,0.213-2.413
				c1.275,0.229,7.654,2.962,12.883,2.275c37.841-4.96,62.524-33.594,76.86-47.553c1.613-1.571,4.476-5.181,5.877,0.784
				c0.927,3.948,6.842,37.774,11.636,60.248c1.174,5.503,0.424,8.253-4.303,12.087c-24.778,20.099-40.862,55.129-52.96,102.487
				c-9.364,36.656-11.469,67.896-11.554,69.209c-0.82,12.668,8.779,23.597,21.447,24.428c0.512,0.034,1.021,0.05,1.526,0.05
				c12.01,0,22.122-9.332,22.929-21.487c1.871-28.181,18.444-104.902,49.982-139.317c5.378-5.869,7.595,0.397,7.91,3.651
				c8.535,88.373,55.815,144.335,58.007,146.881c4.352,5.059,10.5,7.653,16.688,7.653c5.079,0,10.186-1.75,14.337-5.321
				C441.071,444.595,442.115,430.704,434.191,421.493z"/>
			<path d="M258.546,92.777c5.683,2.281,11.792,3.445,17.916,3.445c15.927,0,31.101-8.114,39.975-21.336
				c9.001-13.41,10.625-30.944,4.241-45.783c-6.22-14.455-19.509-25.217-34.964-28.228c-15.805-3.08-32.439,2.095-43.688,13.615
				c-11.254,11.528-16.028,28.311-12.551,44.044C232.872,73.896,243.949,86.917,258.546,92.777z"/>
		</g>
	</g>
</g>
<g>
</g>
<g>
</g>
<g>
</g>
<g>
</g>
<g>
</g>
<g>
</g>
<g>
</g>
<g>
</g>
<g>
</g>
<g>
</g>
<g>
</g>
<g>
</g>
<g>
</g>
<g>
</g>
<g>
</g>
</svg>
