<?xml version="1.0" encoding="utf-8"?>
<!-- Generated by IcoMoon.io -->
<!DOCTYPE svg PUBLIC "-//W3C//DTD SVG 1.1//EN" "http://www.w3.org/Graphics/SVG/1.1/DTD/svg11.dtd">
<svg version="1.1" xmlns="http://www.w3.org/2000/svg" xmlns:xlink="http://www.w3.org/1999/xlink" width="1024" height="1024" viewBox="0 0 1024 1024">
<g id="icomoon-ignore">
</g>
<path d="M466.515 0.031c-247.719 21.309-445.172 218.766-466.485 466.485-0.019 0.214-0.034 0.465-0.034 0.718 0 4.228 3.249 7.697 7.384 8.050l128.515 11.238c0.214 0.019 0.466 0.034 0.72 0.034 4.228 0 7.697-3.249 8.050-7.384 15.288-177.749 156.755-319.268 334.467-334.557 4.167-0.355 7.416-3.824 7.416-8.052 0-0.253-0.011-0.504-0.036-0.752l-11.229-128.39c-0.355-4.167-3.824-7.416-8.052-7.416-0.254 0-0.505 0.011-0.753 0.036z"></path>
<path d="M554.866 0.031c-4.175 0.053-7.587 3.264-7.948 7.353l-11.237 128.453c-0.019 0.214-0.034 0.465-0.034 0.718 0 4.228 3.249 7.697 7.384 8.050 188.249 16.232 335.946 173.975 335.946 366.463 0 21.822-1.912 43.211-5.554 63.992-0.075 0.413-0.119 0.893-0.119 1.383 0 3.968 2.862 7.27 6.634 7.949l126.958 22.41c0.418 0.075 0.894 0.12 1.384 0.12 3.968 0 7.27-2.862 7.949-6.635 5.085-29.014 7.768-58.797 7.768-89.218 0-268.162-205.946-488.434-468.313-511.037-0.123-0.006-0.265-0.010-0.409-0.010s-0.29 0.004-0.431 0.011z"></path>
<path d="M136.531 535.554c-0.243 0.013-0.458 0.037-0.676 0.065l-128.443 11.227c-4.167 0.355-7.416 3.824-7.416 8.052 0 0.253 0.011 0.504 0.036 0.752 13.366 155.345 96.070 290.953 216.958 375.704 1.285 0.901 2.882 1.443 4.605 1.443 2.734 0 5.147-1.356 6.61-3.436l73.915-105.602c0.902-1.285 1.443-2.882 1.443-4.606 0-2.735-1.357-5.148-3.436-6.61-86.73-60.809-145.868-158.069-155.457-269.547-0.337-4.18-3.816-7.445-8.054-7.445-0.029 0-0.061 0-0.090 0z"></path>
<path d="M864.023 631.54c-3.281 0.193-6.022 2.316-7.112 5.245-51.392 141.293-186.754 242.196-345.843 242.196-55.619 0-108.313-12.375-155.56-34.456-1-0.474-2.17-0.754-3.405-0.754-3.221 0-6.005 1.885-7.301 4.615l-54.481 116.86c-0.474 1-0.754 2.171-0.754 3.406 0 3.222 1.885 6.006 4.617 7.301 65.924 30.8 139.394 48.046 216.884 48.046 221.619 0 410.491-140.604 482.133-337.555 0.311-0.824 0.491-1.776 0.491-2.768 0-3.459-2.174-6.41-5.231-7.561l-121.22-44.070c-0.842-0.325-1.815-0.514-2.834-0.514-0.134 0-0.268 0.003-0.401 0.009z"></path>
<path d="M404.563 300.698c-18.136 20.57-24.986 42.836-24.472 78.052 0.124 8.412-0.028 16.418 0.373 24.682-4.993-0.506-9.14 2.676-11.495 6.738-2.693 4.868-2.692 11.186-2.108 16.204 1.151 9.902 8.26 26.196 18.892 33.94 2.488 1.81 4.979 2.238 5.996 3.018 1.835 2.878 4.651 9.572 7.029 15.918 3.477 9.282 10.867 23.124 16.453 30.716 11.501 15.62 12.886 24.086 5.747 35.8-6.139 10.068-8.642 11.396-63.748 33.69-62.149 25.148-75.251 33.708-86.981 56.844-4.325 8.526-15.378 54.708-15.378 64.202 0 14.234 18.96 28.29 53.080 39.314 46.936 11.31 104.834 18.682 167.846 18.682s120.907-7.372 167.846-18.682c34.12-11.024 53.080-25.080 53.080-39.314 0-9.494-11.057-55.676-15.378-64.202-11.73-23.14-24.832-31.696-86.981-56.844-55.105-22.294-57.608-23.622-63.748-33.69-7.142-11.714-5.753-20.18 5.747-35.8 5.586-7.592 12.976-21.434 16.453-30.716 2.377-6.346 5.194-13.040 7.029-15.918 1.017-0.78 3.508-1.208 5.996-3.018 10.632-7.744 17.741-24.042 18.892-33.94 0.583-5.018 0.584-11.336-2.109-16.204-2.354-4.066-6.502-7.244-11.494-6.738 0.4-8.264 0.249-16.268 0.373-24.682 0.514-35.212-6.336-57.478-24.472-78.052-15.097-17.126-42.097-27.748-71.231-27.748s-56.134 10.622-71.23 27.748z"></path>
<path d="M596.5 208.424c-29.134 0-56.172 10.676-71.268 27.798-3.536 4.014-6.629 8.050-9.334 12.268 16.93 4.684 32.795 12.582 46.001 24.87 30.062 27.898 43.733 71.564 39.131 112.066 15.83 17.72 17.123 45.324 7.668 66.734-5.247 17.404-23.413 24.594-29.668 41.2-4.028 13.928-12.713 25.1-20.667 37 40.497 25.306 91.774 30.61 127.535 63.268 25.24 22.962 32.895 57.284 38.733 89.734 13.928-2.378 27.188-5.060 39.667-8.066 34.12-11.022 53.133-25.032 53.133-39.268 0-9.494-11.077-55.674-15.402-64.2-11.73-23.14-24.849-31.722-86.998-56.868-55.105-22.294-57.595-23.666-63.734-33.734-7.143-11.712-5.766-20.112 5.735-35.732 5.587-7.592 12.989-21.45 16.466-30.732 2.377-6.344 5.168-13.056 6.998-15.934 1.018-0.78 3.513-1.19 6.001-3 10.632-7.744 17.783-24.034 18.934-33.932 0.583-5.018 0.56-11.332-2.132-16.2-2.354-4.060-6.473-7.24-11.466-6.732 0.4-8.268 0.21-16.322 0.332-24.732 0.514-35.212-6.33-57.428-24.466-78.002-15.097-17.126-42.064-27.798-71.202-27.798z"></path>
</svg>
