<?xml version="1.0" encoding="UTF-8" standalone="no"?>
<svg width="66px" height="100px" viewBox="0 0 66 100" version="1.1" xmlns="http://www.w3.org/2000/svg" xmlns:xlink="http://www.w3.org/1999/xlink">
    <!-- Generator: Sketch 40.1 (33804) - http://www.bohemiancoding.com/sketch -->
    <title>Artboard</title>
    <desc>Created with Sketch.</desc>
    <defs></defs>
    <g id="Page-1" stroke="none" stroke-width="1" fill="none" fill-rule="evenodd">
        <g id="Artboard" fill="#000000">
            <g id="noun_17146_cc">
                <g id="Group">
                    <g transform="translate(0.000000, 24.000000)">
                        <path d="M45.687,34.316 L29.387,20.322 C28.072,18.615 26.015,17.511 23.694,17.511 C21.309,17.511 19.202,18.678 17.893,20.466 L1.76,34.316 C0.116,35.726 -0.073,38.201 1.34,39.845 C2.115,40.748 3.213,41.211 4.316,41.211 C5.22,41.211 6.129,40.899 6.869,40.266 L14.746,33.505 L11.279,50.84 C11.279,52.363 12.529,53.774 14.288,54.937 L9.846,71.035 C9.27,73.122 10.495,75.281 12.583,75.857 C12.931,75.955 13.283,75.999 13.629,75.999 C15.348,75.999 16.928,74.858 17.407,73.121 L21.633,57.809 C22.389,57.947 23.098,58.028 23.695,58.028 C24.308,58.028 25.037,57.943 25.815,57.797 L30.044,73.121 C30.523,74.86 32.1,75.999 33.823,75.999 C34.168,75.999 34.518,75.953 34.868,75.857 C36.956,75.281 38.18,73.122 37.604,71.035 L33.153,54.907 C34.887,53.749 36.113,52.35 36.113,50.841 L32.634,33.442 L40.581,40.266 C41.323,40.9 42.232,41.211 43.135,41.211 C44.239,41.211 45.337,40.748 46.112,39.844 C47.521,38.201 47.33,35.727 45.687,34.316 L45.687,34.316 Z" id="Shape"></path>
                        <circle id="Oval" cx="23.039" cy="8.239" r="7.622"></circle>
                    </g>
                    <path d="M44.582,61.135 L43.77,60.552 C50.231,51.559 49.332,45.886 48.197,38.703 C47.043,31.408 50.556,22.12 53.427,18.488 L54.211,19.109 C51.45,22.598 48.075,31.529 49.184,38.547 C50.355,45.955 51.281,51.808 44.582,61.135 L44.582,61.135 Z" id="Shape"></path>
                    <path d="M64.197,12.334 C67.057,6.146 65.246,2.377 61.632,0.709 C58.019,-0.963 53.972,0.1 51.112,6.286 C48.252,12.472 50.876,19.771 52.474,20.511 C53.948,21.19 61.338,18.52 64.197,12.334 L64.197,12.334 Z" id="Shape"></path>
                </g>
            </g>
        </g>
    </g>
</svg>