<?xml version="1.0" encoding="UTF-8" standalone="no"?>
<svg width="84px" height="100px" viewBox="0 0 84 100" version="1.1" xmlns="http://www.w3.org/2000/svg" xmlns:xlink="http://www.w3.org/1999/xlink">
    <!-- Generator: Sketch 40.1 (33804) - http://www.bohemiancoding.com/sketch -->
    <title>Artboard</title>
    <desc>Created with Sketch.</desc>
    <defs></defs>
    <g id="Page-1" stroke="none" stroke-width="1" fill="none" fill-rule="evenodd">
        <g id="Artboard" fill="#010101">
            <g id="noun_20265_cc">
                <path d="M31.271,25.109 C38.202,25.101 43.826,19.481 43.826,12.554 C43.826,5.607 38.203,-0.016 31.271,1.77635684e-15 C24.331,-0.017 18.709,5.607 18.714,12.554 C18.709,19.482 24.33,25.102 31.271,25.109 L31.271,25.109 L31.271,25.109 Z" id="Shape"></path>
                <path d="M65.709,87.561 C65.669,87.49 65.614,87.434 65.57,87.366 L65.591,87.354 C65.591,87.354 56.948,75.484 44.578,58.648 L44.431,51.381 L44.431,41.7 L54.87,52.136 C59.057,56.577 65.442,50.642 61.068,46.288 L44.078,29.246 C42.682,27.878 41.084,27.043 38.732,27.025 L31.269,27.025 L23.654,27.025 C21.273,27.044 19.78,27.904 18.41,29.246 L1.62,46.086 C-2.986,50.698 3.23,56.577 7.823,51.984 L17.959,41.748 L17.959,51.381 L17.959,57.031 L17.959,57.032 C15.275,79.568 13.419,95.775 13.419,95.775 L13.443,95.775 C13.438,95.855 13.419,95.93 13.419,96.012 C13.419,98.214 15.204,99.998 17.406,99.998 C19.314,99.998 20.905,98.656 21.296,96.865 L21.301,96.865 L24.032,85.828 L24.032,85.828 C26.574,75.743 28.559,67.083 28.559,67.083 L34.861,66.412 C34.857,66.42 34.853,66.431 34.853,66.431 L38.275,69.853 C38.275,69.853 44.317,76.458 51.534,84.014 L59.236,92.147 C59.239,92.15 59.242,92.153 59.244,92.156 L59.272,92.185 L59.274,92.184 C60.499,93.551 62.545,93.936 64.204,92.995 C66.124,91.91 66.794,89.477 65.709,87.561 L65.709,87.561 Z" id="Shape"></path>
                <circle id="Oval" cx="73.996" cy="72.89" r="9.96"></circle>
            </g>
        </g>
    </g>
</svg>