<?xml version="1.0" encoding="UTF-8" standalone="no"?>
<svg width="20px" height="20px" viewBox="0 0 20 20" version="1.1" xmlns="http://www.w3.org/2000/svg" xmlns:xlink="http://www.w3.org/1999/xlink">
    <!-- Generator: Sketch 39.1 (31720) - http://www.bohemiancoding.com/sketch -->
    <title>Artboard</title>
    <desc>Created with Sketch.</desc>
    <defs></defs>
    <g id="Page-1" stroke="none" stroke-width="1" fill="none" fill-rule="evenodd">
        <g id="Artboard" fill="#000000">
            <path d="M17,20 L9,20 C7.343,20 6,18.657 6,17 L6,14 L3,14 C1.343,14 0,12.657 0,11 L0,3 C0,1.343 1.343,0 3,0 L11,0 C12.657,0 14,1.343 14,3 L14,6 L17,6 C18.657,6 20,7.343 20,9 L20,17 C20,18.657 18.657,20 17,20 L17,20 Z M12,3 C12,2.448 11.552,2 11,2 L3,2 C2.448,2 2,2.448 2,3 L2,11 C2,11.552 2.448,12 3,12 L6,12 L6,9 C6,7.343 7.343,6 9,6 L12,6 L12,3 L12,3 Z M18,9 C18,8.448 17.552,8 17,8 L14,8 L14,11 C14,12.657 12.657,14 11,14 L8,14 L8,17 C8,17.552 8.448,18 9,18 L17,18 C17.552,18 18,17.552 18,17 L18,9 L18,9 Z" id="Shape"></path>
        </g>
    </g>
</svg>