<?xml version="1.0" encoding="utf-8"?>
<!-- Generator: Adobe Illustrator 16.0.4, SVG Export Plug-In . SVG Version: 6.00 Build 0)  -->
<!DOCTYPE svg PUBLIC "-//W3C//DTD SVG 1.1//EN" "http://www.w3.org/Graphics/SVG/1.1/DTD/svg11.dtd">
<svg version="1.1" id="Layer_1" xmlns="http://www.w3.org/2000/svg" xmlns:xlink="http://www.w3.org/1999/xlink" x="0px" y="0px"
	 width="408px" height="535.5px" viewBox="102 128.25 408 535.5" enable-background="new 102 128.25 408 535.5"
	 xml:space="preserve">
<g id="Layer_2">
	<path fill="#303030" d="M153,370.5V243c0-21.675,16.575-38.25,38.25-38.25h25.5c7.65,0,12.75,5.1,12.75,12.75
		s-5.1,12.75-12.75,12.75h-25.5c-7.65,0-12.75,5.1-12.75,12.75v127.5c0,7.65-5.1,12.75-12.75,12.75S153,378.15,153,370.5z
		 M471.75,204.75h-25.5c-7.65,0-12.75,5.1-12.75,12.75s5.1,12.75,12.75,12.75h25.5c7.65,0,12.75,5.1,12.75,12.75v382.5
		c0,7.65-5.1,12.75-12.75,12.75h-280.5c-7.65,0-12.75-5.1-12.75-12.75V498c0-7.65-5.1-12.75-12.75-12.75S153,490.35,153,498v127.5
		c0,21.675,16.575,38.25,38.25,38.25h280.5c21.675,0,38.25-16.575,38.25-38.25V243C510,221.325,493.425,204.75,471.75,204.75z
		 M242.25,243v-38.25c0-14.025,11.475-25.5,25.5-25.5h12.75c0-28.05,22.95-51,51-51s51,22.95,51,51h12.75
		c14.025,0,25.5,11.475,25.5,25.5V243c0,14.025-11.475,25.5-25.5,25.5h-127.5C253.725,268.5,242.25,257.025,242.25,243z M306,179.25
		h51c0-14.025-11.475-25.5-25.5-25.5S306,165.225,306,179.25z M267.75,243h127.5v-38.25h-127.5V243z M197.625,452.1l15.3-34.425
		l20.4,87.976c1.275,5.1,5.1,8.925,10.2,10.199c5.1,1.275,10.2-1.274,12.75-6.375l26.775-48.449h52.275
		c5.1,0,10.2-3.825,12.75-8.926l14.024-47.175l21.676,130.05c1.274,6.375,5.1,10.2,11.475,10.2h1.275
		c5.1,0,10.199-3.825,11.475-8.925l26.775-76.5h11.475c7.65,0,12.75-5.1,12.75-12.75s-5.1-12.75-12.75-12.75h-20.4
		c-5.1,0-10.199,3.825-11.475,8.925l-14.025,38.25L378.675,345c-1.274-6.375-6.375-10.2-11.475-10.2
		c-6.375,0-11.476,3.825-12.75,8.925L326.4,434.25h-51c-5.1,0-8.925,2.55-11.475,6.375l-14.025,25.5l-21.675-93.075
		c-1.275-5.1-6.375-8.925-11.475-10.2c-5.1,0-10.2,2.55-12.75,7.65l-26.775,63.75H114.75c-7.65,0-12.75,5.1-12.75,12.75
		s5.1,12.75,12.75,12.75h71.4C191.25,459.75,196.35,457.2,197.625,452.1z"/>
</g>
</svg>
