<?xml version="1.0" encoding="utf-8"?>
<!-- Generator: Adobe Illustrator 16.0.4, SVG Export Plug-In . SVG Version: 6.00 Build 0)  -->
<!DOCTYPE svg PUBLIC "-//W3C//DTD SVG 1.1//EN" "http://www.w3.org/Graphics/SVG/1.1/DTD/svg11.dtd">
<svg version="1.1" id="Layer_1" xmlns="http://www.w3.org/2000/svg" xmlns:xlink="http://www.w3.org/1999/xlink" x="0px" y="0px"
	 width="155.464px" height="179.344px" viewBox="0 0 155.464 179.344" enable-background="new 0 0 155.464 179.344"
	 xml:space="preserve">
<g>
	<path fill="#333333" d="M50.08,15.989C46.224,3.906,33.303-2.764,21.22,1.094l-5.23,1.668C3.906,6.617-2.762,19.537,1.093,31.621
		l22.514,70.547c3.854,12.082,16.775,18.756,28.859,14.896l5.23-1.672c12.084-3.854,18.752-16.775,14.896-28.857L50.08,15.989z
		 M21.553,63.959L10.297,28.686c-2.229-6.987,1.64-14.487,8.628-16.717l5.232-1.672c6.986-2.229,14.486,1.643,16.717,8.631
		l11.255,35.273L21.553,63.959z M141.137,66.493l-5.086-2.067c-11.752-4.773-25.146,0.881-29.922,12.631l-27.876,68.604
		c-4.774,11.747,0.88,25.146,12.63,29.919l5.086,2.068c11.75,4.773,25.146-0.881,29.92-12.631l27.881-68.604
		C158.543,84.664,152.889,71.268,141.137,66.493z M144.816,92.777l-13.938,34.302l-29.73-12.081l13.938-34.303
		c2.762-6.795,10.533-10.079,17.33-7.317l5.09,2.067C144.297,78.206,147.578,85.98,144.816,92.777z"/>
</g>
</svg>
